<svg width="47" height="47" viewBox="0 0 47 47" fill="none" xmlns="http://www.w3.org/2000/svg">
<path d="M23.5 1.25333L16.1171 5.87499H9.79167V9.79166L5.81625 12.3179C4.68042 13.0033 3.91667 14.2371 3.91667 15.6667V35.25C3.91667 36.2888 4.32931 37.285 5.06383 38.0195C5.79835 38.754 6.79457 39.1667 7.83333 39.1667H39.1667C41.3404 39.1667 43.0833 37.4237 43.0833 35.25V15.6667C43.0833 14.2371 42.3196 13.0033 41.1838 12.3179L37.2083 9.79166V5.87499H30.8829M13.7083 9.79166H33.2917V19.3483L23.5 25.4583L13.7083 19.3483M15.6667 11.75V14.6875H31.3333V11.75M9.79167 14.4525V16.9004L7.83333 15.6667M37.2083 14.4525L39.1667 15.6667L37.2083 16.9004M15.6667 16.6458V19.5833H31.3333V16.6458H15.6667Z" fill="#528EA4"/>
</svg>
