<svg width="47" height="47" viewBox="0 0 47 47" fill="none" xmlns="http://www.w3.org/2000/svg">
<path d="M39.1667 30.3542C36.8167 30.3542 34.2708 29.9625 32.1167 29.1792H31.5292C30.9417 29.1792 30.55 29.375 30.1583 29.7667L25.85 34.075C20.3667 31.1375 15.6667 26.6333 12.925 21.15L17.2333 16.8417C17.8208 16.2542 18.0167 15.4708 17.625 14.8833C17.0375 12.7292 16.6458 10.1833 16.6458 7.83333C16.6458 6.85417 15.6667 5.875 14.6875 5.875H7.83333C6.85417 5.875 5.875 6.85417 5.875 7.83333C5.875 26.2417 20.7583 41.125 39.1667 41.125C40.1458 41.125 41.125 40.1458 41.125 39.1667V32.3125C41.125 31.3333 40.1458 30.3542 39.1667 30.3542ZM9.79167 9.79167H12.7292C12.925 11.5542 13.3167 13.3167 13.7083 14.8833L11.3583 17.2333C10.575 14.8833 9.9875 12.3375 9.79167 9.79167ZM37.2083 37.2083C34.6625 37.0125 32.1167 36.425 29.7667 35.6417L32.1167 33.2917C33.6833 33.6833 35.4458 34.075 37.2083 34.075V37.2083ZM29.375 23.5H33.2917C33.2917 20.9031 32.26 18.4125 30.4238 16.5762C28.5875 14.74 26.0969 13.7083 23.5 13.7083V17.625C25.0581 17.625 26.5525 18.244 27.6543 19.3457C28.756 20.4475 29.375 21.9419 29.375 23.5ZM37.2083 23.5H41.125C41.125 13.7083 33.2329 5.875 23.5 5.875V9.79167C31.0592 9.79167 37.2083 15.9213 37.2083 23.5Z" fill="#528EA4"/>
</svg>
